<svg width="32" height="32" viewBox="0 0 32 32" fill="none" xmlns="http://www.w3.org/2000/svg">
  <defs>
    <!-- Primary Gradient -->
    <linearGradient id="primaryGradient" x1="0%" y1="0%" x2="100%" y2="100%">
      <stop offset="0%" style="stop-color:#0D4F3C;stop-opacity:1" />
      <stop offset="100%" style="stop-color:#00FF88;stop-opacity:1" />
    </linearGradient>
    
    <!-- Energy Gradient -->
    <linearGradient id="energyGradient" x1="0%" y1="0%" x2="100%" y2="0%">
      <stop offset="0%" style="stop-color:#00FF88;stop-opacity:1" />
      <stop offset="100%" style="stop-color:#00D4FF;stop-opacity:1" />
    </linearGradient>
    
    <!-- Glow Filter -->
    <filter id="glow">
      <feGaussianBlur stdDeviation="1" result="coloredBlur"/>
      <feMerge> 
        <feMergeNode in="coloredBlur"/>
        <feMergeNode in="SourceGraphic"/>
      </feMerge>
    </filter>
  </defs>
  
  <!-- Hexagonal Solar Panel Pattern (scaled for 32x32) -->
  <g transform="translate(2, 2)">
    <!-- Top row hexagons -->
    <polygon points="7,3 11,0 15,3 15,8 11,11 7,8" fill="url(#primaryGradient)" stroke="#00FF88" stroke-width="0.3"/>
    <polygon points="13,3 17,0 21,3 21,8 17,11 13,8" fill="url(#primaryGradient)" stroke="#00FF88" stroke-width="0.3"/>
    
    <!-- Middle row hexagons -->
    <polygon points="4,9 8,6 12,9 12,14 8,17 4,14" fill="url(#primaryGradient)" stroke="#00FF88" stroke-width="0.3"/>
    <polygon points="10,9 14,6 18,9 18,14 14,17 10,14" fill="#0D4F3C" stroke="#00FF88" stroke-width="0.3"/>
    <polygon points="16,9 20,6 24,9 24,14 20,17 16,14" fill="url(#primaryGradient)" stroke="#00FF88" stroke-width="0.3"/>
    
    <!-- Bottom row hexagons -->
    <polygon points="7,15 11,12 15,15 15,20 11,23 7,20" fill="url(#primaryGradient)" stroke="#00FF88" stroke-width="0.3"/>
    <polygon points="13,15 17,12 21,15 21,20 17,23 13,20" fill="url(#primaryGradient)" stroke="#00FF88" stroke-width="0.3"/>
    
    <!-- Central Lightning Bolt -->
    <path d="M14 7 L18 7 L15 11 L19 11 L14 17 L17 13 L13 13 Z" fill="url(#energyGradient)" filter="url(#glow)"/>
  </g>
</svg>