<svg width="32" height="32" viewBox="0 0 32 32" fill="none" xmlns="http://www.w3.org/2000/svg">
  <defs>
    <linearGradient id="nexusGradient" x1="0%" y1="0%" x2="100%" y2="100%">
      <stop offset="0%" style="stop-color:#10B981;stop-opacity:1" />
      <stop offset="50%" style="stop-color:#059669;stop-opacity:1" />
      <stop offset="100%" style="stop-color:#047857;stop-opacity:1" />
    </linearGradient>
    <linearGradient id="sunGradient" x1="0%" y1="0%" x2="100%" y2="100%">
      <stop offset="0%" style="stop-color:#FCD34D;stop-opacity:1" />
      <stop offset="100%" style="stop-color:#F59E0B;stop-opacity:1" />
    </linearGradient>
  </defs>
  
  <!-- Background circle -->
  <circle cx="16" cy="16" r="15" fill="url(#nexusGradient)" stroke="#047857" stroke-width="2"/>
  
  <!-- Sun rays -->
  <g stroke="url(#sunGradient)" stroke-width="2" stroke-linecap="round">
    <line x1="16" y1="4" x2="16" y2="6"/>
    <line x1="16" y1="26" x2="16" y2="28"/>
    <line x1="4" y1="16" x2="6" y2="16"/>
    <line x1="26" y1="16" x2="28" y2="16"/>
    <line x1="7.76" y1="7.76" x2="9.17" y2="9.17"/>
    <line x1="22.83" y1="22.83" x2="24.24" y2="24.24"/>
    <line x1="7.76" y1="24.24" x2="9.17" y2="22.83"/>
    <line x1="22.83" y1="9.17" x2="24.24" y2="7.76"/>
  </g>
  
  <!-- Central sun -->
  <circle cx="16" cy="16" r="6" fill="url(#sunGradient)"/>
  
  <!-- Solar panel representation -->
  <rect x="12" y="12" width="8" height="8" fill="none" stroke="white" stroke-width="1" opacity="0.8"/>
  <line x1="12" y1="16" x2="20" y2="16" stroke="white" stroke-width="0.5" opacity="0.6"/>
  <line x1="16" y1="12" x2="16" y2="20" stroke="white" stroke-width="0.5" opacity="0.6"/>
</svg>